# xmcd
# 
# Track frame offsets:
#     150
#     19327
#     36943
#     58112
#     82376
#     100378
#     117851
#     142626
#     162208
#     186464
#     200428
#     220902
#     253284
# 
# Disc length: 3595
# 
# Revision: 3
# Processed by: cddbd v1.5.2PL0 Copyright (c) Steve Scherf et al.
# Submitted via: fre:ac v1.0.31
# 
DISCID=c30e090d
DTITLE=Kenny Wayne Shepherd - How I Go
DYEAR=2011
DGENRE=Blues
TTITLE0=Never Lookin' Back
TTITLE1=Come On Over
TTITLE2=Yer Blues
TTITLE3=Show Me The Way Back Home
TTITLE4=Cold
TTITLE5=Oh, Pretty Woman
TTITLE6=Anywhere The Wind Blows
TTITLE7=Dark Side Of Love
TTITLE8=Heat Of The Sun
TTITLE9=The Wire
TTITLE10=Who's Gonna Catch You Now
TTITLE11=Backwater Blues
TTITLE12=Strut
EXTD=
EXTT0=
EXTT1=
EXTT2=
EXTT3=
EXTT4=
EXTT5=
EXTT6=
EXTT7=
EXTT8=
EXTT9=
EXTT10=
EXTT11=
EXTT12=
PLAYORDER=
